<svg xmlns="http://www.w3.org/2000/svg">
  <symbol id="arrow" viewBox="0 0 24 24">
    <path d="M5 12h13M13 6l6 6-6 6" fill="none" stroke="currentColor" stroke-width="1.8" stroke-linecap="round" stroke-linejoin="round"/>
  </symbol>
  <symbol id="phone" viewBox="0 0 24 24">
    <path d="M7.3 3.5 10 8.1 7.8 10a15.7 15.7 0 0 0 6.2 6.2l1.9-2.2 4.6 2.7v2.7c0 .9-.7 1.6-1.6 1.6C10.1 21 3 13.9 3 5.1c0-.9.7-1.6 1.6-1.6h2.7Z" fill="none" stroke="currentColor" stroke-width="1.7" stroke-linecap="round" stroke-linejoin="round"/>
  </symbol>
  <symbol id="pin" viewBox="0 0 24 24">
    <path d="M20 10c0 5.5-8 11-8 11s-8-5.5-8-11a8 8 0 1 1 16 0Z" fill="none" stroke="currentColor" stroke-width="1.7" stroke-linejoin="round"/>
    <circle cx="12" cy="10" r="2.5" fill="none" stroke="currentColor" stroke-width="1.7"/>
  </symbol>
  <symbol id="instagram" viewBox="0 0 24 24">
    <rect x="3" y="3" width="18" height="18" rx="5" fill="none" stroke="currentColor" stroke-width="1.7"/>
    <circle cx="12" cy="12" r="4" fill="none" stroke="currentColor" stroke-width="1.7"/>
    <circle cx="17.5" cy="6.7" r="1" fill="currentColor"/>
  </symbol>
  <symbol id="barbell" viewBox="0 0 24 24">
    <path d="M7 8v8M4 9.5v5M17 8v8M20 9.5v5M7 12h10M2.5 12h1.5M20 12h1.5" fill="none" stroke="currentColor" stroke-width="1.8" stroke-linecap="round"/>
  </symbol>
  <symbol id="bike" viewBox="0 0 24 24">
    <circle cx="6" cy="17" r="3.2" fill="none" stroke="currentColor" stroke-width="1.7"/>
    <circle cx="18" cy="17" r="3.2" fill="none" stroke="currentColor" stroke-width="1.7"/>
    <path d="M8.8 17h3.2l2.4-5.5H10l-1.2 5.5ZM12 17l-3.5-7M14.4 11.5l2.7 5.5M15 8h3M9 8h2.5M12 8l-1.2 3.5" fill="none" stroke="currentColor" stroke-width="1.7" stroke-linecap="round" stroke-linejoin="round"/>
  </symbol>
  <symbol id="core" viewBox="0 0 24 24">
    <path d="M4 18c3-4 6-6 8-6s5 2 8 6M8 18c1-2 2.4-3 4-3s3 1 4 3M12 12V5M8.5 8.5 12 5l3.5 3.5M5.5 12.5 8 10M18.5 12.5 16 10" fill="none" stroke="currentColor" stroke-width="1.7" stroke-linecap="round" stroke-linejoin="round"/>
  </symbol>
  <symbol id="pilates" viewBox="0 0 24 24">
    <circle cx="12" cy="5" r="2" fill="none" stroke="currentColor" stroke-width="1.7"/>
    <path d="M12 7.5v5M7 12.5c2.4-1.8 7.6-1.8 10 0M5 18h14M8 18c1.2-2.1 2.5-3.2 4-3.2s2.8 1.1 4 3.2M9 10l-3.5 2M15 10l3.5 2" fill="none" stroke="currentColor" stroke-width="1.7" stroke-linecap="round" stroke-linejoin="round"/>
  </symbol>
  <symbol id="treadmill" viewBox="0 0 24 24">
    <path d="M6 5h6l2.5 7H18M6 5l3 8M4 19h15.5c1.1 0 2-.9 2-2v-.5H8.2c-2.5 0-4.7 1.1-5.7 2.5H4ZM15 5h3M18 5v7" fill="none" stroke="currentColor" stroke-width="1.7" stroke-linecap="round" stroke-linejoin="round"/>
    <circle cx="6.5" cy="19" r="1.5" fill="none" stroke="currentColor" stroke-width="1.7"/>
  </symbol>
  <symbol id="group" viewBox="0 0 24 24">
    <circle cx="12" cy="8" r="3" fill="none" stroke="currentColor" stroke-width="1.7"/>
    <path d="M6.5 20c0-3 2.5-5.5 5.5-5.5s5.5 2.5 5.5 5.5M18 6.5a2.5 2.5 0 0 1 0 5M19.5 14.5c1.6.8 2.5 2.2 2.5 4M6 6.5a2.5 2.5 0 0 0 0 5M4.5 14.5A4.5 4.5 0 0 0 2 18.5" fill="none" stroke="currentColor" stroke-width="1.7" stroke-linecap="round"/>
  </symbol>
  <symbol id="calendar" viewBox="0 0 24 24">
    <rect x="3" y="5" width="18" height="16" rx="2" fill="none" stroke="currentColor" stroke-width="1.7"/>
    <path d="M7 3v4M17 3v4M3 10h18M7 14h2M11 14h2M15 14h2M7 17h2M11 17h2" fill="none" stroke="currentColor" stroke-width="1.7" stroke-linecap="round"/>
  </symbol>
  <symbol id="check" viewBox="0 0 24 24">
    <path d="m5 12 4.2 4.2L19 6.5" fill="none" stroke="currentColor" stroke-width="2" stroke-linecap="round" stroke-linejoin="round"/>
  </symbol>
  <symbol id="external" viewBox="0 0 24 24">
    <path d="M14 5h5v5M19 5l-8 8M19 14v5H5V5h5" fill="none" stroke="currentColor" stroke-width="1.7" stroke-linecap="round" stroke-linejoin="round"/>
  </symbol>
</svg>
